<?xml version="1.0" encoding="utf-8"?>
<!-- Generator: Adobe Illustrator 24.0.1, SVG Export Plug-In . SVG Version: 6.00 Build 0)  -->
<svg version="1.1" id="Capa_1" xmlns="http://www.w3.org/2000/svg" xmlns:xlink="http://www.w3.org/1999/xlink" x="0px" y="0px"
	 viewBox="0 0 283.5 283.5" style="enable-background:new 0 0 283.5 283.5;" xml:space="preserve">
<style type="text/css">
	.st0{fill:#00A99D;}
	.st1{fill:#727272;}
	.st2{fill:#FFFFFF;}
</style>
<path class="st0" d="M216.7,283.5H66.8C29.9,283.5,0,253.6,0,216.7V66.8C0,29.9,29.9,0,66.8,0h149.9c36.9,0,66.8,29.9,66.8,66.8
	v149.9C283.5,253.6,253.6,283.5,216.7,283.5z"/>
<g>
	<path class="st1" d="M213.6,216.5h-43.9l-46.5-70.4v70.4H79.4v-140h43.9l46.5,71.6V76.5h43.9L213.6,216.5L213.6,216.5z"/>
</g>
<g>
	<path class="st2" d="M209.2,212.1h-43.9l-46.5-70.4v70.4H75v-140h43.9l46.5,71.6V72.1h43.9V212.1z"/>
</g>
<g>
	<path class="st2" d="M12.4,204.3l-0.5-44.7l-0.3-44.7l-0.1-22.3l0-11.2c0-3.7-0.1-7.4,0.1-11.2c0.4-7.6,2.2-15,5.3-21.9
		C20,41.3,24.3,35,29.6,29.6C35,24.3,41.3,20,48.3,16.9s14.4-4.9,21.9-5.3c3.8-0.2,7.5-0.1,11.2-0.1l11.2,0l22.3,0.1l44.7,0.3
		l44.7,0.5l-44.7,0.5l-44.7,0.3l-22.3,0.1l-11.2,0c-3.7,0-7.5-0.1-11.1,0.1c-7.3,0.4-14.6,2.2-21.2,5.2c-6.7,3-12.8,7.3-18,12.4
		c-5.2,5.2-9.4,11.3-12.4,18c-3,6.7-4.8,13.9-5.2,21.2c-0.2,3.6-0.1,7.4-0.1,11.1l0,11.2l-0.1,22.3l-0.3,44.7L12.4,204.3z"/>
</g>
<g>
	<path class="st2" d="M267.6,75.7l0.5,44.7l0.3,44.7l0.1,22.3l0,11.2c0,3.7,0.1,7.4-0.1,11.2c-0.4,7.5-2.2,15-5.3,21.9
		c-3.1,6.9-7.4,13.3-12.8,18.6c-5.4,5.3-11.7,9.7-18.6,12.8s-14.4,4.9-21.9,5.3c-3.8,0.2-7.5,0.1-11.2,0.1l-11.2,0l-22.3-0.1
		l-44.7-0.3l-44.7-0.5l44.7-0.5l44.7-0.3l22.3-0.1l11.2,0c3.7,0,7.5,0,11.1-0.1c7.3-0.4,14.6-2.2,21.2-5.2c6.7-3,12.8-7.3,18-12.4
		c5.2-5.2,9.4-11.3,12.4-18c3-6.7,4.8-13.9,5.2-21.2c0.2-3.6,0.1-7.4,0.1-11.1l0-11.2l0.1-22.3l0.3-44.7L267.6,75.7z"/>
</g>
</svg>
